<?xml version="1.0" encoding="iso-8859-1"?>
<!-- Generator: Adobe Illustrator 19.0.0, SVG Export Plug-In . SVG Version: 6.00 Build 0)  -->
<svg version="1.1" id="Capa_1" xmlns="http://www.w3.org/2000/svg" xmlns:xlink="http://www.w3.org/1999/xlink" x="0px" y="0px"
	 viewBox="0 0 512 512" style="enable-background:new 0 0 512 512;" xml:space="preserve">
<path style="fill:#F5C86E;" d="M448,452.006h30c13.255,0,24-10.745,24-24l0,0c0-13.255-10.745-24-24-24H34
	c-13.255,0-24,10.745-24,24l0,0c0,13.255,10.745,24,24,24H448"/>
<rect x="222" y="452.01" style="fill:#F5B955;" width="68" height="49.994"/>
<path style="fill:#F0F0FA;" d="M202.158,214.352L176.902,128H124H71.098l-25.256,86.352c-6.639,22.7-2.273,47.2,11.799,66.209l0,0
	c14.259,19.262,36.804,30.623,60.769,30.623h11.18c23.965,0,46.511-11.361,60.769-30.623l0,0
	C204.431,261.552,208.797,237.052,202.158,214.352z"/>
<path style="fill:#FF5A5A;" d="M203.287,218.687l-2.849-10.214l0,0c-21.108-21.108-55.33-21.108-76.438,0l0,0
	c-21.108,21.108-55.33,21.108-76.438,0l0,0l0,0l-1.72,5.88c-6.639,22.7-2.273,47.2,11.799,66.209l0,0
	c14.258,19.262,36.804,30.623,60.769,30.623h11.18c23.965,0,46.511-11.361,60.769-30.623l0,0
	C203.54,262.756,208.204,240.135,203.287,218.687z"/>
<path style="fill:#C8F5FF;" d="M194.032,404.006L194.032,404.006c-38.677,0-70.032-31.354-70.032-70.032l0,0
	c0,38.677-31.354,70.032-70.032,70.032l0,0L194.032,404.006L194.032,404.006z"/>
<path style="fill:#F5B955;" d="M388.228,10H361.62c-11.231,0-19.99,9.725-18.82,20.895L345.222,54h59.406l2.421-23.105
	C408.218,19.725,399.459,10,388.228,10z"/>
<path style="fill:#5A6996;" d="M406.809,154.351V54H340.55v100.351l0,0c-47.049,0-85.19,38.141-85.19,85.19v164.465H492V239.541
	C492,192.492,453.859,154.351,406.809,154.351L406.809,154.351z"/>
<g>
	<rect x="439.68" y="255.6" style="fill:#F0F0FA;" width="52.32" height="72"/>
	<rect x="255.36" y="255.6" style="fill:#F0F0FA;" width="57.39" height="72"/>
</g>
<g>
	<rect x="340.55" y="54" style="fill:#FF5A5A;" width="66.26" height="64.68"/>
	<circle style="fill:#FF5A5A;" cx="373.68" cy="291.6" r="66"/>
</g>
<path d="M405.06,442.01c-2.63,0-5.21,1.06-7.07,2.92c-1.86,1.87-2.93,4.44-2.93,7.08c0,2.63,1.07,5.2,2.93,7.07
	c1.86,1.86,4.44,2.93,7.07,2.93c2.64,0,5.21-1.07,7.07-2.93c1.87-1.86,2.93-4.44,2.93-7.07c0-2.64-1.06-5.21-2.93-7.08
	C410.27,443.07,407.7,442.01,405.06,442.01z"/>
<path d="M502,403.947v-76.345v-72v-16.061c0-49.111-37.384-89.656-85.19-94.669V54c0-1.973-0.58-3.808-1.566-5.358l1.751-16.706
	c0.852-8.137-1.8-16.291-7.275-22.37C404.243,3.487,396.41,0,388.229,0h-26.608c-8.182,0-16.015,3.487-21.491,9.566
	c-5.476,6.08-8.127,14.233-7.275,22.37l1.491,14.23c-2.31,1.832-3.796,4.657-3.796,7.834v90.872
	c-47.806,5.013-85.19,45.558-85.19,94.669v16.061v72v66.404h-51.328c-33.102,0-60.032-26.93-60.032-60.032v-12.912
	c25.381-1.326,49.202-14.025,64.397-34.551c15.837-21.394,20.831-49.419,13.359-74.966l-1.721-5.885
	c-0.006-0.022-0.012-0.043-0.019-0.065L186.5,125.193c-1.247-4.263-5.156-7.193-9.598-7.193H159.75c-5.523,0-10,4.477-10,10
	c0,5.523,4.477,10,10,10h9.658l14.115,48.26c-6.754-2.375-13.933-3.619-21.304-3.619c-17.108,0-33.193,6.663-45.291,18.76
	c-15.804,15.804-40.723,17.054-57.982,3.771L78.592,138H88.75c5.523,0,10-4.477,10-10s-4.477-10-10-10H71.098
	c-4.442,0-8.351,2.93-9.598,7.193l-23.511,80.391c-0.009,0.03-0.018,0.06-0.027,0.091l-1.717,5.871
	c-7.473,25.547-2.479,53.572,13.358,74.966c15.195,20.526,39.016,33.225,64.397,34.551v12.912c0,33.102-26.93,60.032-60.032,60.032
	H34c-18.748,0-34,15.252-34,34s15.252,34,34,34h178V502c0,5.523,4.477,10,10,10h68c5.523,0,10-4.477,10-10v-39.994h62.333
	c5.523,0,10-4.477,10-10s-4.477-10-10-10H290h-68H34c-7.72,0-14-6.28-14-14s6.28-14,14-14h19.968h140.063h61.328H478
	c7.72,0,14,6.28,14,14s-6.28,14-14,14h-30c-5.523,0-10,4.477-10,10s4.477,10,10,10h30c18.748,0,34-15.252,34-34
	C512,418.617,508.174,410.106,502,403.947z M280,462.006V492h-48v-29.994H280z M265.36,265.602h36.904
	c-2.964,8.115-4.584,16.872-4.584,26s1.62,17.885,4.584,26H265.36V265.602z M317.68,291.602c0-30.878,25.122-56,56-56
	s56,25.122,56,56s-25.122,56-56,56S317.68,322.48,317.68,291.602z M445.096,265.602H482v52h-36.904
	c2.964-8.115,4.584-16.872,4.584-26S448.06,273.717,445.096,265.602z M350.55,64h46.259v44.682H350.55V64z M354.991,22.951
	c1.714-1.903,4.068-2.951,6.63-2.951h26.608c2.561,0,4.916,1.048,6.629,2.951c1.714,1.903,2.512,4.354,2.245,6.901L395.621,44
	h-41.392l-1.482-14.147C352.479,27.305,353.276,24.854,354.991,22.951z M340.55,164.351c5.523,0,10-4.477,10-10v-25.669h46.259
	v25.669c0,5.523,4.477,10,10,10c41.46,0,75.19,33.73,75.19,75.19v6.061h-47.876c-13.897-18.216-35.816-30-60.444-30
	s-46.547,11.784-60.444,30H265.36v-6.061C265.36,198.081,299.09,164.351,340.55,164.351z M65.678,274.611
	c-10.408-14.06-14.683-31.854-12.085-48.986c9.913,5.759,21.049,8.648,32.188,8.648c16.402,0,32.804-6.243,45.291-18.729
	c8.32-8.32,19.382-12.902,31.148-12.902c10.953,0,21.292,3.975,29.38,11.234l0.96,3.284c5.727,19.579,1.899,41.056-10.238,57.452
	c-12.317,16.639-32.03,26.573-52.732,26.573h-11.18C97.708,301.184,77.995,291.25,65.678,274.611z M106.841,394.006
	c6.865-6.053,12.688-13.264,17.159-21.321c4.472,8.058,10.294,15.269,17.159,21.321L106.841,394.006L106.841,394.006z
	 M265.36,394.006v-56.404h47.876c13.897,18.216,35.816,30,60.444,30s46.547-11.784,60.444-30H482v56.404h-4H265.36z"/>
<path d="M373.68,270.219c11.791,0,21.383,9.592,21.383,21.383c0,5.523,4.477,10,10,10s10-4.477,10-10
	c0-22.819-18.564-41.383-41.383-41.383c-5.523,0-10,4.477-10,10C363.68,265.742,368.157,270.219,373.68,270.219z"/>
<path d="M125.75,138c2.63,0,5.21-1.07,7.07-2.93s2.93-4.44,2.93-7.07c0-2.63-1.07-5.21-2.93-7.07c-1.86-1.86-4.44-2.93-7.07-2.93
	s-5.21,1.07-7.07,2.93s-2.93,4.44-2.93,7.07c0,2.63,1.07,5.21,2.93,7.07C120.54,136.93,123.12,138,125.75,138z"/>
<g>
</g>
<g>
</g>
<g>
</g>
<g>
</g>
<g>
</g>
<g>
</g>
<g>
</g>
<g>
</g>
<g>
</g>
<g>
</g>
<g>
</g>
<g>
</g>
<g>
</g>
<g>
</g>
<g>
</g>
</svg>
